<?xml version="1.0" encoding="UTF-8"?>
<svg version="1.1" xmlns="http://www.w3.org/2000/svg" width="182" height="94">
<path d="M0 0 C6.18134869 5.10448822 11.79822878 10.68294942 17.4375 16.375 C18.35982422 17.30183594 19.28214844 18.22867187 20.23242188 19.18359375 C22.49058625 21.45345846 24.74636942 23.72563538 27 26 C26.505 27.485 26.505 27.485 26 29 C22.23396131 27.43717018 19.86360849 25.0936525 17.015625 22.2109375 C16.55516785 21.74765045 16.09471069 21.2843634 15.62030029 20.80703735 C14.15874922 19.33434102 12.70432832 17.85482597 11.25 16.375 C10.25697389 15.37193678 9.26348911 14.36932743 8.26953125 13.3671875 C5.84102059 10.91669165 3.41885325 8.4600333 1 6 C0.02804688 6.85980469 -0.94390625 7.71960938 -1.9453125 8.60546875 C-4.63638146 10.93931017 -7.38145627 12.92618101 -10.3671875 14.86328125 C-16.32931288 19.1910592 -21.83414065 23.7664438 -23.50823975 31.28149414 C-25.36009816 44.0971362 -24.37254508 57.12649764 -24 70 C-6.84 70 10.32 70 28 70 C28 70.99 28 71.98 28 73 C9.85 73 -8.3 73 -27 73 C-27 66.4 -27 59.8 -27 53 C-43.83 53 -60.66 53 -78 53 C-78 52.01 -78 51.02 -78 50 C-61.17 50 -44.34 50 -27 50 C-27 42.41 -27 34.82 -27 27 C-20.37186803 17.85124905 -20.37186803 17.85124905 -17.40234375 15.38085938 C-16.76280762 14.83582764 -16.12327148 14.2907959 -15.46435547 13.72924805 C-14.81611816 13.17922119 -14.16788086 12.62919434 -13.5 12.0625 C-12.19400288 10.87223441 -10.89316804 9.67627898 -9.59765625 8.47460938 C-6.45391023 5.58089685 -3.25111025 2.77234648 0 0 Z " fill="#252423" transform="translate(89,7)"/>
<path d="M0 0 C1.50433594 0.01353516 1.50433594 0.01353516 3.0390625 0.02734375 C3.80992188 0.03894531 4.58078125 0.05054688 5.375 0.0625 C5.375 1.0525 5.375 2.0425 5.375 3.0625 C4.715 3.0625 4.055 3.0625 3.375 3.0625 C3.375 7.3525 3.375 11.6425 3.375 16.0625 C4.365 16.3925 5.355 16.7225 6.375 17.0625 C6.045 17.7225 5.715 18.3825 5.375 19.0625 C3.065 19.0625 0.755 19.0625 -1.625 19.0625 C-1.955 18.0725 -2.285 17.0825 -2.625 16.0625 C-1.635 16.0625 -0.645 16.0625 0.375 16.0625 C0.045 15.4025 -0.285 14.7425 -0.625 14.0625 C-2.62383869 13.72227214 -4.62390722 13.38920903 -6.625 13.0625 C-9.05020546 10.63729454 -9.31064441 9.44182259 -9.625 6.0625 C-8.8125 3.3125 -8.8125 3.3125 -7.625 1.0625 C-4.98041621 -0.25979189 -2.94738699 -0.03427194 0 0 Z M-4.625 3.0625 C-5.98118499 4.18784105 -5.98118499 4.18784105 -5.6875 7.125 C-5.666875 8.094375 -5.64625 9.06375 -5.625 10.0625 C-3.73320797 10.7439823 -3.73320797 10.7439823 -1.625 11.0625 C0.66228734 9.22366119 0.66228734 9.22366119 0.5 6.4375 C0.45875 5.65375 0.4175 4.87 0.375 4.0625 C-1.28114657 3.68031233 -2.94957024 3.34854898 -4.625 3.0625 Z " fill="#265532" transform="translate(99.625,51.9375)"/>
<path d="M0 0 C2.1875 -0.5 2.1875 -0.5 5 0 C7.01271839 2.48053942 8.51887086 5.17640062 10 8 C10.33 6.35 10.66 4.7 11 3 C10.01 2.67 9.02 2.34 8 2 C8 1.34 8 0.68 8 0 C10.31 0 12.62 0 15 0 C14.85941524 2.45873768 14.71277001 4.91685175 14.5625 7.375 C14.50352539 8.42300781 14.50352539 8.42300781 14.44335938 9.4921875 C14.11328125 14.7734375 14.11328125 14.7734375 13 17 C9.30209954 15.76736651 9.0645154 14.79947549 7.3125 11.4375 C6.87550781 10.61121094 6.43851562 9.78492188 5.98828125 8.93359375 C5.66214844 8.29550781 5.33601563 7.65742187 5 7 C4.67 9.31 4.34 11.62 4 14 C4.99 14 5.98 14 7 14 C7 14.66 7 15.32 7 16 C4.69 16 2.38 16 0 16 C0 15.34 0 14.68 0 14 C0.66 14 1.32 14 2 14 C1.85866501 12.22880197 1.71176792 10.45804713 1.5625 8.6875 C1.48128906 7.70136719 1.40007812 6.71523438 1.31640625 5.69921875 C1.08187441 2.90624401 1.08187441 2.90624401 0 0 Z " fill="#295838" transform="translate(71,49)"/>
<path d="M0 0 C2.31 0 4.62 0 7 0 C7 1.32 7 2.64 7 4 C7.66 4 8.32 4 9 4 C9 2.68 9 1.36 9 0 C10.98 0 12.96 0 15 0 C15 3 15 3 13 5.1875 C12.34 5.785625 11.68 6.38375 11 7 C11.66 7.61875 12.32 8.2375 13 8.875 C15 11 15 11 15 13 C12.69 13 10.38 13 8 13 C7.67 12.01 7.34 11.02 7 10 C7 10.99 7 11.98 7 13 C4.69 13 2.38 13 0 13 C0 12.34 0 11.68 0 11 C2 9.375 2 9.375 4 8 C2.6910428 4.87802522 2.6910428 4.87802522 0 3 C0 2.01 0 1.02 0 0 Z " fill="#2A5E38" transform="translate(147,52)"/>
<path d="M0 0 C2 2 2 2 2.1953125 4.1640625 C2.17210937 4.97617187 2.14890625 5.78828125 2.125 6.625 C2.10695312 7.44226562 2.08890625 8.25953125 2.0703125 9.1015625 C2.03550781 10.04128906 2.03550781 10.04128906 2 11 C2.66 11 3.32 11 4 11 C4 11.66 4 12.32 4 13 C2.23086176 13.22226864 0.45955629 13.42733873 -1.3125 13.625 C-2.79169922 13.79902344 -2.79169922 13.79902344 -4.30078125 13.9765625 C-7 14 -7 14 -10 12 C-10.3125 9.5 -10.3125 9.5 -10 7 C-8 5 -8 5 -4.375 4.875 C-2.704375 4.936875 -2.704375 4.936875 -1 5 C-1 4.34 -1 3.68 -1 3 C-3.64 3.33 -6.28 3.66 -9 4 C-9 3.01 -9 2.02 -9 1 C-5.98675805 -0.50662097 -3.31713623 -0.17770373 0 0 Z M-7 8 C-6.67 8.99 -6.34 9.98 -6 11 C-4.02463255 10.65213292 -4.02463255 10.65213292 -2 10 C-1.67 9.34 -1.34 8.68 -1 8 C-2.98 8 -4.96 8 -7 8 Z " fill="#2B5937" transform="translate(139,52)"/>
<path d="M0 0 C0.66 1.32 1.32 2.64 2 4 C-0.42526722 6.51212252 -2.86712007 9.00746398 -5.3125 11.5 C-6.00279297 12.21542969 -6.69308594 12.93085938 -7.40429688 13.66796875 C-8.40493164 14.68310547 -8.40493164 14.68310547 -9.42578125 15.71875 C-10.34484253 16.66137695 -10.34484253 16.66137695 -11.2824707 17.62304688 C-13 19 -13 19 -16 19 C-16.66 18.67 -17.32 18.34 -18 18 C-12.06 12.06 -6.12 6.12 0 0 Z " fill="#1F1D1E" transform="translate(84,12)"/>
<path d="M0 0 C0.66 0.33 1.32 0.66 2 1 C1.67 5.62 1.34 10.24 1 15 C1.99 15.33 2.98 15.66 4 16 C3.67 16.66 3.34 17.32 3 18 C0.69 18 -1.62 18 -4 18 C-4.33 17.01 -4.66 16.02 -5 15 C-4.01 15 -3.02 15 -2 15 C-2.33 14.34 -2.66 13.68 -3 13 C-5.52733235 12.34444881 -5.52733235 12.34444881 -8 12 C-8 11.34 -8 10.68 -8 10 C-6.02 9.67 -4.04 9.34 -2 9 C-1.34 6.03 -0.68 3.06 0 0 Z " fill="#2E5D3A" transform="translate(102,53)"/>
<path d="M0 0 C2.31 0 4.62 0 7 0 C7 3.63 7 7.26 7 11 C8.65 11 10.3 11 12 11 C12 11.66 12 12.32 12 13 C7.71 13 3.42 13 -1 13 C-1 12.34 -1 11.68 -1 11 C0.65 11 2.3 11 4 11 C4 8.36 4 5.72 4 3 C2.68 3 1.36 3 0 3 C0 2.01 0 1.02 0 0 Z " fill="#2B5938" transform="translate(111,52)"/>
<path d="M0 0 C6 7.42857143 6 7.42857143 6 11 C6.66 11 7.32 11 8 11 C7.67 12.32 7.34 13.64 7 15 C4 14 4 14 2.578125 11.85546875 C2.13984375 10.97503906 1.7015625 10.09460937 1.25 9.1875 C0.80140625 8.31480469 0.3528125 7.44210938 -0.109375 6.54296875 C-1.06982104 3.80064256 -1.02018585 2.6686569 0 0 Z " fill="#21532D" transform="translate(77,51)"/>
<path d="M0 0 C0.33 0 0.66 0 1 0 C1 1.98 1 3.96 1 6 C1.66 6.33 2.32 6.66 3 7 C2.34 7 1.68 7 1 7 C0.67 7.66 0.34 8.32 0 9 C-2.35953094 6.64046906 -2.49141413 5.22104383 -3 2 C-2.01 2 -1.02 2 0 2 C0 1.34 0 0.68 0 0 Z " fill="#205029" transform="translate(93,56)"/>
<path d="M0 0 C0.99 0 1.98 0 3 0 C3 1.65 3 3.3 3 5 C2.01 5 1.02 5 0 5 C0 3.35 0 1.7 0 0 Z " fill="#304C37" transform="translate(115,46)"/>
</svg>
